<svg width="45" height="45" viewBox="0 0 32 28" fill="none" xmlns="http://www.w3.org/2000/svg">
<path d="M26 0.875H6C3.2385 0.875 1 2.83369 1 5.25V22.75C1 25.1663 3.2385 27.125 6 27.125H26C28.7615 27.125 31 25.1663 31 22.75V5.25C31 2.83369 28.7615 0.875 26 0.875ZM9 11.375H6.455V13.3438H9V14.6562H6.455V17.9375H5V10.0625H9V11.375ZM15.2375 17.9375H13.727L12.4915 14.6562H11.929V17.9375H10.5V10.0625H13C14.379 10.0625 15.5 11.0928 15.5 12.3594C15.5 13.3206 14.8535 14.1461 13.9395 14.4878L15.2375 17.9375ZM21 11.375H18.455V13.3438H21V14.6562H18.455V16.625H21V17.9375H17V10.0625H21V11.375ZM27 11.375H24.455V13.3438H27V14.6562H24.455V16.625H27V17.9375H23V10.0625H27V11.375Z" fill="white"/>
<path d="M13 11.375H11.9285V13.3438H13C13.591 13.3438 14.0715 12.9019 14.0715 12.3594C14.0715 11.8169 13.591 11.375 13 11.375Z" fill="white"/>
</svg>
