<svg width="45" height="45" viewBox="0 0 24 24" fill="none" xmlns="http://www.w3.org/2000/svg">
<path d="M7 11V6C7 3 9 1 12 1C15 1 17 3 17 6V11M12 15V19M12 23C13.8565 23 15.637 22.2625 16.9497 20.9497C18.2625 19.637 19 17.8565 19 16C19 14.1435 18.2625 12.363 16.9497 11.0503C15.637 9.7375 13.8565 9 12 9C10.1435 9 8.36301 9.7375 7.05025 11.0503C5.7375 12.363 5 14.1435 5 16C5 17.8565 5.7375 19.637 7.05025 20.9497C8.36301 22.2625 10.1435 23 12 23ZM12 16C12.2652 16 12.5196 15.8946 12.7071 15.7071C12.8946 15.5196 13 15.2652 13 15C13 14.7348 12.8946 14.4804 12.7071 14.2929C12.5196 14.1054 12.2652 14 12 14C11.7348 14 11.4804 14.1054 11.2929 14.2929C11.1054 14.4804 11 14.7348 11 15C11 15.2652 11.1054 15.5196 11.2929 15.7071C11.4804 15.8946 11.7348 16 12 16Z" stroke="white" stroke-width="2"/>
</svg>
