<svg width="24" height="24" viewBox="0 0 24 24" fill="none" xmlns="http://www.w3.org/2000/svg">
<path d="M12 7C10.4087 7 8.88258 7.63214 7.75736 8.75736C6.63214 9.88258 6 11.4087 6 13H18C18 11.4087 17.3679 9.88258 16.2426 8.75736C15.1174 7.63214 13.5913 7 12 7ZM12 7V2M9 13C9 13.7956 9.31607 14.5587 9.87868 15.1213C10.4413 15.6839 11.2044 16 12 16C12.7956 16 13.5587 15.6839 14.1213 15.1213C14.6839 14.5587 15 13.7956 15 13M5 13H19M12 20V22M15 19L17 20.5M9 19L7 20.5" stroke="white" stroke-width="1.5" stroke-linecap="round" stroke-linejoin="round"/>
</svg>
