<svg width="45" height="45" viewBox="0 0 24 24" fill="none" xmlns="http://www.w3.org/2000/svg">
<path d="M9.5 2C10.8833 2 12.1833 2.26267 13.4 2.788C14.6167 3.31333 15.675 4.02567 16.575 4.925C17.475 5.82433 18.1877 6.88267 18.713 8.1C19.2383 9.31733 19.5007 10.6173 19.5 12C19.4993 13.3827 19.2367 14.6827 18.712 15.9C18.1873 17.1173 17.475 18.1757 16.575 19.075C15.675 19.9743 14.6167 20.687 13.4 21.213C12.1833 21.739 10.8833 22.0013 9.5 22C8.61667 22 7.754 21.8877 6.912 21.663C6.07 21.4383 5.266 21.1007 4.5 20.65C6.05 19.75 7.271 18.5333 8.163 17C9.055 15.4667 9.50067 13.8 9.5 12C9.49933 10.2 9.05333 8.53333 8.162 7C7.27067 5.46667 6.05 4.25 4.5 3.35C5.26667 2.9 6.071 2.56267 6.913 2.338C7.755 2.11333 8.61733 2.00067 9.5 2Z" fill="white"/>
</svg>
