<svg width="294" height="43" viewBox="0 0 294 43" fill="none" xmlns="http://www.w3.org/2000/svg">
<path fill-rule="evenodd" clip-rule="evenodd" d="M46 16.4415H28.4009L23 0L17.5991 16.4415H0L14.3955 26.5585L8.78929 43L23 32.8106L37.2107 43L31.5942 26.5585L46 16.4415Z" fill="white"/>
<path fill-rule="evenodd" clip-rule="evenodd" d="M108 16.4415H90.4009L85 0L79.5991 16.4415H62L76.3955 26.5585L70.7893 43L85 32.8106L99.2107 43L93.5942 26.5585L108 16.4415Z" fill="white"/>
<path fill-rule="evenodd" clip-rule="evenodd" d="M232 16.4415H214.401L209 0L203.599 16.4415H186L200.396 26.5585L194.789 43L209 32.8106L223.211 43L217.594 26.5585L232 16.4415Z" fill="white"/>
<path fill-rule="evenodd" clip-rule="evenodd" d="M170 16.4415H152.401L147 0L141.599 16.4415H124L138.396 26.5585L132.789 43L147 32.8106L161.211 43L155.594 26.5585L170 16.4415Z" fill="white"/>
<path fill-rule="evenodd" clip-rule="evenodd" d="M294 16.4415H276.401L271 0L265.599 16.4415H248L262.396 26.5585L256.789 43L271 32.8106L285.211 43L279.594 26.5585L294 16.4415Z" fill="white"/>
</svg>
